<svg width="43" height="48" viewBox="0 0 43 48" fill="none" xmlns="http://www.w3.org/2000/svg">
<path d="M26.1904 2.67226C26.6106 2.21993 27.1677 2.10661 27.6643 1.9111C29.0818 1.35298 30.5582 0.960022 31.9606 0.35264C32.2902 0.209871 32.5988 0.0510895 32.9911 0.0137164C34.369 -0.117567 35.33 0.719927 36.3643 1.39869C36.6276 1.57145 36.8639 1.79136 37.0954 2.0086C37.3444 2.24228 37.6732 2.43445 37.5122 2.89333C37.4187 3.15983 37.7979 3.1122 37.8679 3.39602C37.3881 3.71629 37.0078 4.22962 36.4949 4.55611C36.2171 4.733 35.9593 4.89541 35.8113 5.17989C35.5335 5.71399 35.2291 6.23592 35.0949 6.83983C34.9994 7.26962 35.1167 7.51971 35.5415 7.6438C36.2579 7.85306 36.7391 8.35256 37.1037 8.99665C37.3252 9.38788 37.3119 9.7553 37.0282 10.0871C36.7407 10.4234 36.4346 10.7521 36.0554 10.9823C35.5017 11.3185 35.0551 11.7391 34.7955 12.3563C34.6852 12.6185 34.5047 12.8499 34.2754 13.0196C34.0659 13.1745 34.0559 13.3665 34.1096 13.5884C34.1657 13.8207 34.3422 13.8648 34.5447 13.904C35.9754 14.1814 37.4168 14.0761 38.8388 13.916C39.4914 13.8425 40.0769 13.3439 40.3458 12.6857C40.8572 11.4338 41.4998 10.246 42.014 8.99716C42.0556 8.89612 42.1092 8.80518 42.342 8.73799C42.3248 9.62517 41.7413 10.3247 41.6988 11.1469C41.8435 11.1928 41.8871 10.9654 42.0662 11.0692C41.9988 11.6568 41.9793 12.2665 41.8184 12.8655C41.6534 13.4795 42.1889 14.8219 42.7195 15.1567C42.9269 15.2875 43.0719 15.4246 42.9138 15.6658C42.7306 15.9452 43.2198 16.2615 42.8709 16.4989C42.2616 16.9137 42.0249 17.654 41.4698 18.1153C41.2593 18.2902 41.0518 18.3154 40.7839 18.3604C38.8697 18.682 37.1229 17.6862 35.2612 17.6947C34.4221 17.6985 33.5874 17.7854 32.7835 18.0902C31.9148 18.4195 31.0574 18.7862 30.1347 18.9544C29.2184 19.1214 28.397 18.8019 27.5938 18.4518C26.6108 18.0234 25.6524 17.5357 24.6884 17.0632C24.1114 16.7803 23.7764 15.2178 24.1719 14.7162C24.3205 14.5278 24.5283 14.4971 24.6873 14.6237C25.524 15.2902 26.382 14.9461 27.245 14.7203C28.3905 14.4205 28.9614 13.4291 29.6832 12.6235C29.9073 12.3733 29.7593 12.1419 29.5116 12.0143C28.8565 11.6767 28.2085 11.3173 27.4332 11.3459C26.657 11.3746 26.2909 11.0696 26.1534 10.3108C26.0741 9.87266 26.3878 9.65723 26.6785 9.46384C27.6643 8.80792 28.7089 8.27171 29.8563 7.974C30.1608 7.89498 30.4484 7.7702 30.7609 7.70595C31.3899 7.57663 31.1513 6.9941 31.2206 6.59931C31.2775 6.27558 31.1352 6.02918 30.7681 5.87225C29.7338 5.43004 28.7065 4.96104 27.7153 4.42751C27.0531 4.071 26.4374 4.11703 25.8002 4.39154C25.4949 4.52303 25.2088 4.703 24.9213 4.87382C24.6861 5.01352 24.4798 5.26952 24.1961 4.94059C23.9227 4.62352 24.0443 4.33271 24.2531 4.07563C24.6592 3.57583 25.1641 3.19501 25.7383 2.91128C25.8794 2.84156 26.0171 2.7647 26.1904 2.67226ZM30.69 10.619C30.72 10.24 30.9463 9.87898 30.79 9.41496C30.0368 9.63632 29.2823 9.78626 28.559 10.0921C28.656 10.2933 28.8052 10.3268 28.9314 10.3494C29.445 10.4415 29.9408 10.5032 30.3322 10.9559C30.544 11.2008 30.6202 10.8812 30.69 10.619Z" fill="#19171A"/>
<path d="M6.12353 45.5287C5.86182 45.2175 5.59531 44.928 5.32801 44.6377C5.56019 44.3619 5.7768 44.495 5.98419 44.5613C6.79824 44.8218 7.22403 44.5469 7.31413 43.7116C7.35551 43.3279 7.42817 42.9469 7.3839 42.559C7.37662 42.4951 7.3418 42.4344 7.29389 42.2996C6.68319 42.8392 6.11371 43.3489 5.48825 43.7887C4.68537 44.3533 3.8992 44.9416 3.09677 45.5069C2.54958 45.8923 1.8373 45.7961 1.39011 45.2973C0.565672 44.3779 1.09985 42.0628 1.97479 41.5761C2.70521 41.1699 3.53432 40.9562 4.36421 40.7931C4.77638 40.7121 5.18765 40.6207 5.59202 40.5078C5.86053 40.4329 6.02779 40.234 6.09855 39.9534C5.90819 39.744 5.69668 39.7421 5.48125 39.8739C4.8216 40.2774 4.1346 40.0761 3.63516 39.7022C1.9665 38.4533 1.12355 36.7534 1.30701 34.6394C1.39559 33.6186 2.2046 33.0492 2.90687 32.4471C3.17155 32.2201 3.40826 31.9078 3.91135 31.8631C3.60245 32.2735 3.2648 32.5351 2.94515 32.8098C2.14442 33.4978 1.9951 34.5058 2.63026 35.3603C3.22405 36.1592 3.84933 36.937 4.58863 37.6125C4.99924 37.9878 7.06991 37.6415 7.25044 37.1286C7.48195 36.471 7.38706 35.7861 7.2566 35.088C6.75809 35.2544 6.27788 35.3057 5.7765 35.1477C5.49699 35.0596 5.19059 35.0444 4.89441 35.0246C4.51339 34.9991 4.22865 34.8061 3.99499 34.535C3.71344 34.2083 3.76223 33.8906 4.09217 33.6222C4.79567 33.0499 5.62293 32.6928 6.44663 32.3516C7.51877 31.9074 7.71514 31.5755 7.41619 30.3424C6.34641 30.4604 5.47117 31.0908 4.52897 31.5387C4.50262 31.4965 4.47627 31.4544 4.44992 31.4122C4.83424 31.0829 5.21912 30.7542 5.6026 30.4239C5.74854 30.2982 5.89729 30.1748 6.0338 30.0394C6.1742 29.9 6.30376 29.7423 6.17276 29.5309C6.05312 29.3379 5.86614 29.3236 5.66136 29.3644C5.0695 29.4823 4.53696 29.7605 3.98839 29.9906C2.70839 30.5276 1.46752 31.1379 0.38706 32.0308C0.289586 32.1114 0.181476 32.2373 0.012672 32.1501C-0.0504733 31.9229 0.136417 31.8485 0.263275 31.743C1.67478 30.5695 3.25088 29.6553 4.87316 28.8119C5.68514 28.3897 6.51465 28.0158 7.40559 27.7937C7.7085 27.7182 7.83757 27.5366 7.8317 27.2246C7.82743 26.9979 7.84886 26.7674 7.88828 26.5438C7.98618 25.9884 8.39163 25.8369 8.83824 26.1894C8.94394 26.2728 9.04659 26.3911 9.09186 26.5148C9.3184 27.1339 9.699 27.5034 10.3457 27.7854C11.506 28.2914 11.1381 29.5973 10.3278 30.098C9.97924 30.3135 9.78464 30.5641 9.77876 30.9796C9.77448 31.2824 9.89534 31.4052 10.1873 31.3635C11.0817 31.236 11.9468 31.2539 12.8256 31.5658C13.5698 31.83 14.2243 32.4137 14.2922 33.2249C14.34 33.7962 14.4117 34.3695 14.3297 34.9542C14.2819 35.2945 14.2396 35.5912 13.9869 35.8484C13.8586 35.979 13.6553 36.1506 13.9234 36.3729C14.0229 36.4553 13.9232 36.5751 13.8466 36.6421C13.4918 36.9526 13.2934 37.4785 12.7069 37.4762C12.6624 37.476 12.5942 37.5125 12.5766 37.5504C12.2182 38.3203 11.3971 38.5424 10.8155 39.0464C10.569 39.2601 10.2828 39.379 9.97982 39.4744C9.7214 39.5558 9.5875 39.7121 9.55586 40.0035C9.46644 40.8271 9.45427 40.821 10.2593 41.0272C11.9236 41.4535 13.6106 41.8028 15.2145 42.4382C15.5516 42.5717 15.7046 42.485 15.8475 42.1562C16.497 40.6619 17.2879 39.2406 18.2059 37.8958C18.5687 37.3642 19.0086 36.8833 19.4341 36.3975C19.563 36.2503 19.7159 36.0783 19.9588 36.1017C19.9748 36.1391 20.0083 36.183 19.9981 36.1988C19.45 37.0483 18.9401 37.9208 18.3702 38.7587C17.9088 39.4369 17.4854 40.1739 17.3861 41.0288C17.3617 41.2388 17.3218 41.4434 17.2218 41.6338C17.1633 41.7451 17.1066 41.9239 17.191 41.9805C17.6285 42.2742 17.374 42.6167 17.3068 42.9597C17.2227 43.3886 17.1505 43.8269 17.4816 44.1787C17.3692 44.3829 17.1505 44.2301 17.0473 44.3737C16.9098 45.2015 17.0895 44.9153 16.0359 45.1373C15.811 45.1847 15.8023 45.2688 15.7678 45.4486C13.6687 44.5045 11.7912 43.1345 9.57705 42.4141C9.40007 43.1834 9.40662 43.9073 9.62538 44.6515C9.83898 45.3782 9.75501 46.1528 9.7157 46.8912C9.66586 47.8274 8.66167 48.2822 7.81762 47.8138C7.18065 47.4603 6.55004 47.067 6.52079 46.2054C6.51301 45.9765 6.27513 45.9836 6.15628 45.8687C6.06709 45.7824 5.80018 45.6933 6.12353 45.5287ZM9.66655 34.3632C9.66738 34.9227 9.69069 35.4834 9.66181 36.0415C9.63942 36.4739 9.83935 36.6415 10.2216 36.5657C11.1984 36.3721 12.0913 35.9954 12.7783 35.2388C12.8701 35.1377 12.9328 35.0048 12.9896 34.878C13.4145 33.9289 12.9166 33.0729 11.8834 33.0194C11.1926 32.9837 10.5896 33.2506 10.0461 33.6725C9.84001 33.8325 9.69313 34.0075 9.66655 34.3632ZM3.58464 42.2627C3.98044 41.9898 4.37648 41.717 4.72585 41.3364C3.06958 41.2518 1.92251 41.9018 1.8834 42.9275C1.93217 42.9352 1.99088 42.9644 2.03008 42.9478C2.52769 42.7362 3.0225 42.5181 3.58464 42.2627Z" fill="#19171A"/>
<path d="M31.4884 44.8384C31.4069 44.5479 31.5652 44.3708 31.7835 44.2274C32.2953 43.8913 32.8093 43.5586 33.3284 43.2206C33.2305 43.0772 33.1319 43.1316 33.0161 43.1944C31.941 43.7768 30.8554 44.3394 29.8227 44.9982C29.3084 45.3264 28.7119 45.4216 28.1171 45.4952C26.6341 45.6789 25.8354 44.8523 25.4759 43.5663C25.0744 42.1303 25.1659 40.6443 25.201 39.1628C25.2334 37.798 25.3307 36.4408 25.4467 35.0836C25.5917 33.3862 25.8782 31.7152 26.4619 30.1054C26.5504 29.8611 26.6632 29.6175 26.6339 29.3138C26.1614 29.2 25.8034 29.4959 25.4201 29.6664C25.06 29.8266 24.7506 29.8677 24.5098 29.4934C24.5134 29.3128 24.6505 29.2459 24.7671 29.1784C25.5906 28.7021 26.314 28.0474 27.3031 27.869C27.86 27.7686 28.3552 27.8499 28.8136 28.14C29.1371 28.3446 29.3823 28.6615 29.3046 29.062C29.1567 29.8242 29.2056 30.6046 28.8162 31.3495C28.3983 32.1488 28.1806 33.0767 28.099 33.9733C27.9111 36.0363 27.3798 38.0593 27.4253 40.1498C27.4462 41.1105 27.5122 42.0638 27.6587 43.0092C27.74 43.5344 28.2815 43.7984 28.9343 43.7462C29.8003 43.677 30.6396 43.4942 31.4181 43.1148C31.853 42.9028 32.4013 43.0044 32.7703 42.6274C32.2688 41.6878 31.9733 41.6233 31.2128 42.2606C31.0112 42.4294 30.7587 42.5563 30.6045 42.7593C30.143 43.3667 29.6483 43.2565 28.9845 42.8031C28.3069 42.3403 28.1499 41.6211 28.4582 40.8613C28.5245 40.698 28.6353 40.6083 28.811 40.5913C29.9231 40.4835 30.4981 39.5855 31.2641 38.9685C30.4032 39.5081 29.9561 39.364 29.075 38.8375C28.4111 38.4409 28.4626 37.7383 29.1116 37.3206C29.6549 36.971 30.1907 36.6101 30.684 36.0731C30.1512 35.8985 29.6644 35.7627 29.2308 35.5069C28.9717 35.354 28.6754 35.1796 28.6849 34.8537C28.6959 34.4801 28.9473 34.2386 29.302 34.0762C30.099 33.7112 30.8924 33.3344 31.6642 32.9195C32.2718 32.5928 32.2791 32.2329 31.735 31.7869C31.5594 31.643 31.355 31.5342 31.1793 31.3904C30.8691 31.1365 30.9524 30.9148 31.2613 30.732C31.4146 30.6412 31.5854 30.5586 31.7606 30.5963C32.4468 30.7441 33.1411 30.8948 33.6266 31.4642C33.8243 31.6961 34.0247 31.7923 34.3458 31.7885C35.4191 31.7759 36.0005 32.3143 35.9656 33.2179C35.9585 33.4007 35.9339 33.5844 35.7817 33.6918C35.3919 33.9668 35.4557 34.2826 35.5514 34.6987C35.665 35.1926 35.6549 35.7037 36.1004 36.0595C36.2367 36.1684 36.3416 36.3167 36.5681 36.1862C36.4896 35.7584 35.9682 35.6364 35.9091 35.1666C36.3721 35.2494 36.8257 35.2426 37.1848 35.6202C37.4433 35.8919 37.8513 35.9161 38.174 36.0902C38.4518 36.2401 38.7608 36.3731 38.7835 36.7491C38.8059 37.1184 38.5216 37.235 38.2525 37.3852C38.0109 37.52 37.7846 37.6989 37.5889 37.8956C37.2288 38.2575 37.6103 38.4766 37.7816 38.7758C38.1373 38.5327 38.2519 38.1458 38.4813 37.8499C38.5752 37.7287 38.6349 37.5394 38.8262 37.5737C39.0084 37.6064 39.1243 37.7556 39.1894 37.926C39.3281 38.2884 39.3477 38.6616 39.1266 38.9899C38.5974 39.7757 38.8625 40.4151 39.3097 41.1609C39.6286 41.6928 40.0246 42.0807 40.4608 42.4754C41.0514 43.0099 40.971 43.4472 40.3331 43.8732C40.0802 44.0421 39.7392 44.254 39.7898 44.6696C38.7923 44.9162 38.3753 44.1966 37.8925 43.6202C37.5928 43.2623 37.3188 42.8812 37.1517 42.4342C37.0687 42.2124 36.929 42.0737 36.6676 42.2263C36.1694 42.517 35.6679 42.8019 35.1663 43.09C35.5522 43.644 36.4932 43.9958 37.0652 43.7904C37.4185 43.6636 37.6694 43.6993 37.6795 44.1262C37.6953 44.7969 38.194 44.8511 38.6625 44.8996C39.1146 44.9464 39.5742 44.9232 40.0306 44.9277C40.3623 44.931 40.6163 44.7718 40.7568 44.4873C41.0129 43.969 41.2538 43.4398 41.2638 42.8432C41.3034 40.4728 41.1588 38.1093 40.9981 35.7462C40.9267 34.696 41.0078 33.6393 40.8739 32.5917C40.8005 32.0177 40.8007 31.4162 40.6175 30.8783C40.2767 29.8779 39.5577 29.2085 38.5106 28.9356C36.7728 28.4828 35.1803 28.9329 33.6461 29.7276C33.3309 29.8909 33.3357 29.9002 33.0089 29.9122C32.9985 29.6031 33.2526 29.4516 33.4214 29.2885C34.6688 28.0836 36.052 27.1365 37.8533 26.9645C38.1958 26.9318 38.5163 26.9531 38.8408 27.0138C39.2722 27.0945 39.7061 27.1368 40.1413 27.1865C40.8083 27.2626 41.3291 27.5888 41.6604 28.2272C41.9359 28.7583 42.1487 29.2848 42.2934 29.8746C42.4831 30.6484 42.3043 31.3847 42.2109 32.1089C42.1223 32.7963 42.2122 33.4664 42.1914 34.1403C42.1529 35.3918 42.1414 36.6532 42.3119 37.9046C42.4392 38.8383 42.5344 39.7733 42.5717 40.7195C42.6164 41.855 42.8318 42.9824 42.7984 44.1263C42.7729 45 42.7798 45.8751 42.5893 46.7366C42.4904 47.1837 42.2427 47.463 41.7803 47.4955C40.8271 47.5625 39.8757 47.3544 39.1017 46.8831C38.4274 46.4726 37.7116 46.187 37.0294 45.8182C36.6453 45.6105 36.3245 45.6925 35.9369 45.8095C34.8036 46.1516 33.6631 46.515 32.4533 46.4155C31.9961 46.3779 31.561 46.2229 31.1622 45.9889C30.8231 45.7901 30.5446 45.4983 30.6389 45.0969C30.7305 44.7073 31.1396 44.9103 31.4834 44.8514C32.7059 44.7686 33.8719 44.8037 35.0032 44.3441C34.355 43.7561 34.2781 43.7572 33.6754 44.2493C33.4699 44.417 33.3206 44.7002 33.0115 44.646C32.8468 44.538 33.0607 44.3992 32.9496 44.3136C32.6312 44.2588 32.478 44.532 32.2449 44.6374C32.0029 44.7468 31.7572 44.8337 31.4884 44.8384ZM34.4354 40.1315C34.0226 40.5102 33.5791 40.8493 33.1117 41.1576C32.9556 41.2605 32.7882 41.3976 32.9825 41.5675C33.3478 41.8869 33.7414 42.175 34.1341 42.4612C34.2428 42.5404 34.3723 42.4704 34.4737 42.3948C34.9778 42.0191 35.4941 41.657 35.9204 41.1886C36.2483 40.8285 36.1721 40.4151 35.7215 39.8087C35.4142 39.3952 35.2175 39.7802 34.9792 39.8792C34.8181 39.9462 34.66 40.0209 34.4354 40.1315ZM33.3343 38.3712C33.3114 38.4753 33.1877 38.5721 33.3047 38.6897C34.5826 38.1445 34.8926 37.7568 34.3675 37.2717C34.0374 37.6192 33.706 37.9683 33.3343 38.3712ZM33.3875 35.7849C33.6312 35.7527 33.7265 35.6381 33.6088 35.3971C33.5277 35.2308 33.4112 35.1496 33.2395 35.2592C33.0849 35.3578 32.7872 35.3417 32.8729 35.6556C32.9443 35.917 33.1255 35.893 33.3875 35.7849Z" fill="#19171A"/>
<path d="M38.609 33.9076C37.8737 33.569 37.3948 34.1203 36.8532 34.3638C36.666 34.1305 36.8449 33.9706 36.8882 33.7985C36.971 33.4689 37.0434 33.1485 36.7441 32.875C36.5159 32.6665 36.6162 32.5154 36.8471 32.3933C37.1722 32.2215 37.4998 32.1894 37.8592 32.295C38.4157 32.4585 38.8518 32.7988 39.2223 33.2162C39.3712 33.3839 39.5061 33.6287 39.3045 33.8843C39.0926 34.153 38.8725 34.0148 38.609 33.9076Z" fill="#19171A"/>
<path d="M11.0006 18.5937C10.7402 18.824 10.9668 18.9185 11.1265 19.0167C11.6672 19.3491 12.1752 19.1462 12.6717 18.9C13.6234 18.4281 14.2652 17.6503 14.7534 16.7344C15.8309 14.7132 17.1619 12.8654 18.5944 11.0863C18.6931 10.9637 18.8043 10.8503 18.9181 10.7413C18.9647 10.6967 19.0335 10.6754 19.1243 10.6261C19.2101 10.8829 19.0416 11.0065 18.9304 11.1392C17.766 12.528 16.7599 14.0304 15.8963 15.616C15.5521 16.2481 15.4237 17.0021 15.2268 17.7089C15.0662 18.2851 14.8971 18.8536 14.6282 19.3911C14.1553 20.3361 13.4101 20.923 12.3459 20.8969C11.3531 20.8726 10.5767 20.3906 10.1606 19.4078C9.73491 19.4832 9.40503 19.7636 9.02463 19.9263C8.02884 20.3523 7.04208 20.3403 6.08308 19.8475C5.18973 19.3884 4.92061 18.2494 5.46622 17.4089C5.61902 17.1735 5.81452 17.1081 6.04605 17.2484C6.36753 17.4433 6.65481 17.3671 6.92742 17.1722C7.47743 16.7791 8.0656 16.4269 8.5005 15.8427C8.14868 15.5727 7.70513 15.5175 7.50129 15.1306C7.21641 14.5899 7.11899 13.9968 7.08508 13.4068C6.9705 11.4138 7.28231 9.46196 7.6954 7.51853C7.96448 6.25261 8.16633 4.968 8.64288 3.76025C9.12685 2.5337 9.67812 1.32577 10.7855 0.512067C11.8221 -0.249625 12.6328 -0.169564 13.4621 0.805934C13.9827 1.41841 14.4361 2.08855 15.0044 2.66331C15.1267 2.78698 15.2298 2.93525 15.368 3.03642C15.7312 3.30243 15.9916 3.19453 16.0742 2.7442C16.1114 2.5409 16.0753 2.31881 16.3138 2.15908C16.7746 2.41719 17.1669 2.73068 17.2451 3.31505C17.3229 3.89695 16.9655 4.30613 16.3736 4.30013C15.6236 4.29252 15.1794 3.80414 14.8634 3.22726C14.4293 2.43465 13.8241 1.77268 13.3067 1.04583C12.7563 0.2725 11.9887 0.278076 11.4622 1.06705C10.4898 2.52427 9.74919 4.07574 9.83695 5.90498C9.86832 6.55887 9.5269 7.15504 9.46909 7.80795C9.35939 9.04708 9.21951 10.2816 9.31299 11.529C9.34763 11.9911 9.57225 12.3987 9.66015 12.8459C9.70731 13.0859 9.91853 13.1162 10.1232 13.0543C10.3241 12.9936 10.547 12.9451 10.7073 12.8222C11.182 12.4582 11.6032 12.5291 12.0382 12.8851C12.5182 13.2778 12.9052 13.6918 12.8017 14.3919C12.6086 15.6981 12.0775 16.8705 11.4086 18.0683C11.252 18.2852 11.1263 18.4394 11.0006 18.5937Z" fill="#19171A"/>
<path d="M3.0528 13.5687C2.62316 13.9728 2.18563 13.8072 1.77348 13.6251C1.23634 13.3878 1.01192 12.9178 1.00049 12.3557C0.977546 11.2268 1.76186 10.1852 2.83588 9.89173C3.24274 9.78056 3.63135 9.7941 3.97436 10.0826C4.37669 10.421 4.38639 10.6753 4.04791 11.0866C3.46505 11.7947 3.14738 12.6154 3.0528 13.5687Z" fill="#19171A"/>
<path d="M11.0078 18.621C11.1262 18.4397 11.2519 18.2855 11.396 18.1037C11.7052 17.902 11.7797 17.4699 12.1846 17.4199C12.141 17.9783 11.5141 18.6314 11.0078 18.621Z" fill="#19171A"/>
</svg>
